<svg width="235" height="64" viewBox="0 0 235 64" fill="none" xmlns="http://www.w3.org/2000/svg">
<path opacity="0.2" fill-rule="evenodd" clip-rule="evenodd" d="M17.7137 29.3877L25.2883 7.86719H16.8483L9.27369 29.3877H17.7137ZM11.959 45.7377H3.51897L1.48828 51.5072H9.92828L11.959 45.7377Z" fill="black"/>
<path opacity="0.6" fill-rule="evenodd" clip-rule="evenodd" d="M31.1439 29.3877L38.7185 7.86719H30.2885L22.7089 29.3877H31.1439ZM25.3891 45.7377H16.9505L14.9185 51.5072H23.3585L25.3891 45.7377Z" fill="black"/>
<path d="M71.8784 51.4977V18.7777H79.2484V24.3377H79.6284C80.3084 22.4577 81.4384 20.9977 83.0184 19.9377C84.5984 18.8777 86.4784 18.3477 88.6684 18.3477C90.8584 18.3477 92.7584 18.8877 94.2784 19.9577C95.8084 21.0277 96.8784 22.4877 97.5084 24.3377H97.8484C98.5684 22.5177 99.7984 21.0677 101.528 19.9777C103.258 18.8877 105.298 18.3477 107.678 18.3477C110.688 18.3477 113.148 19.2977 115.048 21.1977C116.948 23.0977 117.898 25.8777 117.898 29.5277V51.4977H110.168V30.7277C110.168 28.6977 109.628 27.2077 108.548 26.2677C107.468 25.3277 106.148 24.8477 104.588 24.8477C102.728 24.8477 101.278 25.4277 100.228 26.5877C99.1884 27.7477 98.6584 29.2477 98.6584 31.0977V51.5077H91.0984V30.4177C91.0984 28.7277 90.5884 27.3777 89.5784 26.3677C88.5584 25.3577 87.2384 24.8577 85.6084 24.8577C84.4984 24.8577 83.4884 25.1377 82.5784 25.6977C81.6684 26.2577 80.9484 27.0477 80.4084 28.0577C79.8684 29.0777 79.5984 30.2577 79.5984 31.6077V51.5077H71.8884L71.8784 51.4977Z" fill="black"/>
<path d="M123.338 63.7777V18.7777H130.928V24.1877H131.378C131.778 23.3877 132.338 22.5477 133.058 21.6377C133.778 20.7377 134.758 19.9577 135.998 19.3177C137.238 18.6677 138.808 18.3477 140.728 18.3477C143.258 18.3477 145.538 18.9877 147.578 20.2777C149.618 21.5677 151.238 23.4577 152.438 25.9677C153.638 28.4777 154.238 31.5477 154.238 35.1877C154.238 38.8277 153.648 41.8377 152.468 44.3477C151.288 46.8577 149.688 48.7777 147.648 50.0977C145.608 51.4177 143.318 52.0777 140.748 52.0777C138.868 52.0777 137.318 51.7677 136.078 51.1377C134.838 50.5077 133.848 49.7577 133.108 48.8677C132.358 47.9777 131.788 47.1377 131.368 46.3477H131.048V63.7777H123.338ZM130.898 35.1377C130.898 37.2577 131.198 39.1077 131.808 40.6977C132.408 42.2877 133.288 43.5277 134.428 44.4177C135.568 45.3077 136.958 45.7477 138.598 45.7477C140.238 45.7477 141.728 45.2877 142.878 44.3777C144.028 43.4677 144.898 42.2077 145.488 40.6077C146.078 39.0077 146.368 37.1877 146.368 35.1377C146.368 33.0877 146.078 31.3077 145.498 29.7277C144.918 28.1477 144.048 26.9177 142.898 26.0177C141.748 25.1177 140.308 24.6777 138.598 24.6777C136.888 24.6777 135.548 25.1077 134.398 25.9777C133.248 26.8477 132.378 28.0577 131.788 29.6177C131.198 31.1777 130.908 33.0177 130.908 35.1377H130.898Z" fill="black"/>
<path d="M166.128 7.86719V51.5072H158.418V7.86719H166.128Z" fill="black"/>
<path d="M171.658 51.4973V18.7773H179.368V51.5073H171.658V51.4973Z" fill="black"/>
<path d="M201.469 18.7774V24.7474H182.119V18.7774H201.469ZM186.959 51.4974V15.6874C186.959 13.4874 187.419 11.6574 188.329 10.1874C189.249 8.72738 190.479 7.62738 192.029 6.90738C193.579 6.18738 195.299 5.81738 197.189 5.81738C198.519 5.81738 199.709 5.92738 200.749 6.13738C201.789 6.34738 202.549 6.53738 203.049 6.71738L201.519 12.6874C201.189 12.5874 200.779 12.4874 200.279 12.3774C199.779 12.2674 199.229 12.2174 198.619 12.2174C197.189 12.2174 196.169 12.5574 195.579 13.2474C194.989 13.9374 194.699 14.9174 194.699 16.1974V51.5074H186.969L186.959 51.4974Z" fill="black"/>
<path d="M209.918 63.7773C208.868 63.7773 207.898 63.6973 207.008 63.5273C206.118 63.3573 205.418 63.1773 204.888 62.9673L206.678 56.9573C207.798 57.2873 208.798 57.4373 209.678 57.4273C210.558 57.4173 211.338 57.1373 212.008 56.6073C212.678 56.0773 213.258 55.1873 213.718 53.9573L214.378 52.1873L202.508 18.7773H210.688L218.228 43.4973H218.568L226.128 18.7773H234.328L221.228 55.4673C220.618 57.1973 219.808 58.6873 218.798 59.9273C217.788 61.1673 216.558 62.1173 215.098 62.7873C213.638 63.4473 211.908 63.7773 209.888 63.7773H209.918Z" fill="black"/>
<path fill-rule="evenodd" clip-rule="evenodd" d="M0.279297 40.7372H32.1469L28.3588 51.4972H36.7988V51.5072L40.4095 40.7372H56.8019L60.4188 51.5072H68.8588L53.4788 7.86719H43.7188L34.3824 34.3872H2.51431L0.279297 40.7372ZM42.5384 34.3872H54.6693L48.7688 16.8172H48.4288L42.5384 34.3872Z" fill="black"/>
<path d="M182.888 7.8673C178.818 7.8673 175.508 4.5673 175.508 0.487305C175.508 4.5573 172.208 7.8673 168.128 7.8673C172.198 7.8673 175.508 11.1673 175.508 15.2473C175.508 11.1773 178.808 7.8673 182.888 7.8673Z" fill="black"/>
</svg>
