<svg width="235" height="64" viewBox="0 0 235 64" fill="none" xmlns="http://www.w3.org/2000/svg">
<path opacity="0.2" fill-rule="evenodd" clip-rule="evenodd" d="M17.4364 29.6104L25.0109 8.08984H16.5709L8.99635 29.6104H17.4364ZM11.6816 45.9604H3.24163L1.21094 51.7298H9.65094L11.6816 45.9604Z" fill="white"/>
<path opacity="0.6" fill-rule="evenodd" clip-rule="evenodd" d="M30.8665 29.6104L38.4411 8.08984H30.0111L22.4316 29.6104H30.8665ZM25.1118 45.9604H16.6731L14.6411 51.7298H23.0811L25.1118 45.9604Z" fill="white"/>
<path d="M71.6011 51.7203V19.0003H78.9711V24.5603H79.3511C80.0311 22.6803 81.1611 21.2203 82.7411 20.1603C84.3211 19.1003 86.2011 18.5703 88.3911 18.5703C90.5811 18.5703 92.4811 19.1103 94.0011 20.1803C95.5311 21.2503 96.6011 22.7103 97.2311 24.5603H97.5711C98.2911 22.7403 99.5211 21.2903 101.251 20.2003C102.981 19.1103 105.021 18.5703 107.401 18.5703C110.411 18.5703 112.871 19.5203 114.771 21.4203C116.671 23.3203 117.621 26.1003 117.621 29.7503V51.7203H109.891V30.9503C109.891 28.9203 109.351 27.4303 108.271 26.4903C107.191 25.5503 105.871 25.0703 104.311 25.0703C102.451 25.0703 101.001 25.6503 99.9511 26.8103C98.9111 27.9703 98.3811 29.4703 98.3811 31.3203V51.7303H90.8211V30.6403C90.8211 28.9503 90.3111 27.6003 89.3011 26.5903C88.2811 25.5803 86.9611 25.0803 85.3311 25.0803C84.2211 25.0803 83.2111 25.3603 82.3011 25.9203C81.3911 26.4803 80.6711 27.2703 80.1311 28.2803C79.5911 29.3003 79.3211 30.4803 79.3211 31.8303V51.7303H71.6111L71.6011 51.7203Z" fill="white"/>
<path d="M123.061 64.0003V19.0003H130.651V24.4103H131.101C131.501 23.6103 132.061 22.7703 132.781 21.8603C133.501 20.9603 134.481 20.1803 135.721 19.5403C136.961 18.8903 138.531 18.5703 140.451 18.5703C142.981 18.5703 145.261 19.2103 147.301 20.5003C149.341 21.7903 150.961 23.6803 152.161 26.1903C153.361 28.7003 153.961 31.7703 153.961 35.4103C153.961 39.0503 153.371 42.0603 152.191 44.5703C151.011 47.0803 149.411 49.0003 147.371 50.3203C145.331 51.6403 143.041 52.3003 140.471 52.3003C138.591 52.3003 137.041 51.9903 135.801 51.3603C134.561 50.7303 133.571 49.9803 132.831 49.0903C132.081 48.2003 131.511 47.3603 131.091 46.5703H130.771V64.0003H123.061ZM130.621 35.3603C130.621 37.4803 130.921 39.3303 131.531 40.9203C132.131 42.5103 133.011 43.7503 134.151 44.6403C135.291 45.5303 136.681 45.9703 138.321 45.9703C139.961 45.9703 141.451 45.5103 142.601 44.6003C143.751 43.6903 144.621 42.4303 145.211 40.8303C145.801 39.2303 146.091 37.4103 146.091 35.3603C146.091 33.3103 145.801 31.5303 145.221 29.9503C144.641 28.3703 143.771 27.1403 142.621 26.2403C141.471 25.3403 140.031 24.9003 138.321 24.9003C136.611 24.9003 135.271 25.3303 134.121 26.2003C132.971 27.0703 132.101 28.2803 131.511 29.8403C130.921 31.4003 130.631 33.2403 130.631 35.3603H130.621Z" fill="white"/>
<path d="M165.851 8.08984V51.7298H158.141V8.08984H165.851Z" fill="white"/>
<path d="M171.381 51.72V19H179.091V51.73H171.381V51.72Z" fill="white"/>
<path d="M201.191 19V24.97H181.841V19H201.191ZM186.681 51.72V15.91C186.681 13.71 187.141 11.88 188.051 10.41C188.971 8.95004 190.201 7.85004 191.751 7.13004C193.301 6.41004 195.021 6.04004 196.911 6.04004C198.241 6.04004 199.431 6.15004 200.471 6.36004C201.511 6.57004 202.271 6.76004 202.771 6.94004L201.241 12.91C200.911 12.81 200.501 12.71 200.001 12.6C199.501 12.49 198.951 12.44 198.341 12.44C196.911 12.44 195.891 12.78 195.301 13.47C194.711 14.16 194.421 15.14 194.421 16.42V51.73H186.691L186.681 51.72Z" fill="white"/>
<path d="M209.641 64C208.591 64 207.621 63.92 206.731 63.75C205.841 63.58 205.141 63.4 204.611 63.19L206.401 57.18C207.521 57.51 208.521 57.66 209.401 57.65C210.281 57.64 211.061 57.36 211.731 56.83C212.401 56.3 212.981 55.41 213.441 54.18L214.101 52.41L202.231 19H210.411L217.951 43.72H218.291L225.851 19H234.051L220.951 55.69C220.341 57.42 219.531 58.91 218.521 60.15C217.511 61.39 216.281 62.34 214.821 63.01C213.361 63.67 211.631 64 209.611 64H209.641Z" fill="white"/>
<path fill-rule="evenodd" clip-rule="evenodd" d="M0.00195312 40.9598H31.8695L28.0814 51.7198H36.5214V51.7298L40.1321 40.9598H56.5245L60.1414 51.7298H68.5814L53.2014 8.08984H43.4414L34.105 34.6098H2.23697L0.00195312 40.9598ZM42.261 34.6098H54.392L48.4914 17.0398H48.1514L42.261 34.6098Z" fill="white"/>
<path d="M182.611 8.08996C178.541 8.08996 175.231 4.78996 175.231 0.709961C175.231 4.77996 171.931 8.08996 167.851 8.08996C171.921 8.08996 175.231 11.39 175.231 15.47C175.231 11.4 178.531 8.08996 182.611 8.08996Z" fill="white"/>
</svg>
